# File produced by Open Asset Import Library (http://www.assimp.sf.net)
# (assimp v3.1.193236683)

mtllib HexModel.mtl

# 72 vertex positions
v  -100 -100 32.7527
v  -100 -100 -32.7527
v  -32.7527 -100 -100
v  32.7527 -100 -100
v  100 -100 -32.7527
v  100 -100 32.7527
v  32.7527 -100 100
v  -32.7527 -100 100
v  -100 -32.7527 100
v  -100 32.7527 100
v  -100 100 32.7527
v  -100 100 -32.7527
v  -100 32.7527 -100
v  -100 -32.7527 -100
v  -30.4766 5.56704 -81.4056
v  -37.4379 6.83864 -100
v  -6.83866 37.4379 -100
v  -5.56705 30.4765 -81.4056
v  -41.9284 100 -13.7327
v  -41.9284 100 13.7327
v  100 -32.7527 -100
v  100 32.7527 -100
v  100 100 -32.7527
v  100 100 32.7527
v  100 32.7527 100
v  100 -32.7527 100
v  32.7527 100 -100
v  32.7527 100 100
v  -32.7527 100 -100
v  -32.7527 100 100
v  30.4766 5.56704 -81.4056
v  37.4379 6.83864 -100
v  37.4379 -6.83868 -100
v  30.4766 -5.56706 -81.4056
v  6.83866 37.4379 -100
v  6.83866 -37.4379 -100
v  6.83866 37.4379 100
v  37.4379 6.83868 100
v  37.4379 -6.83864 100
v  6.83866 -37.4379 100
v  -37.4379 -6.83868 -100
v  -6.83866 -37.4379 -100
v  -37.4379 6.83868 100
v  -6.83866 37.4379 100
v  -6.83866 -37.4379 100
v  -37.4379 -6.83864 100
v  -5.56705 -30.4765 81.4056
v  5.56705 -30.4765 81.4056
v  30.4766 -5.56704 81.4056
v  30.4766 5.56706 81.4056
v  5.56705 30.4766 81.4056
v  -5.56705 30.4766 81.4056
v  -30.4766 5.56706 81.4056
v  -30.4766 -5.56704 81.4056
v  5.56705 -30.4766 -81.4056
v  -5.56705 -30.4766 -81.4056
v  -30.4766 -5.56706 -81.4056
v  5.56705 30.4765 -81.4056
v  -35.3285 85.4619 -11.5711
v  -35.3285 85.4619 11.571
v  -13.7327 100 41.9284
v  41.9284 100 13.7327
v  41.9284 100 -13.7327
v  13.7327 100 41.9284
v  -13.7327 100 -41.9284
v  13.7327 100 -41.9284
v  35.3285 85.4619 11.571
v  35.3285 85.4619 -11.5711
v  11.571 85.4619 -35.3285
v  -11.5711 85.4619 -35.3285
v  -11.5711 85.4619 35.3285
v  11.571 85.4619 35.3285

# 176 UV coordinates
vt 2.02826e-08 0.576569 0
vt 2.02826e-08 0.465116 0
vt 0.114417 0.3507 0
vt 0.22587 0.3507 0
vt 0.340286 0.465116 0
vt 0.340286 0.576569 0
vt 0.22587 0.690986 0
vt 0.114417 0.690986 0
vt 0.454703 0 0
vt 0.566156 0 0
vt 0.680572 0.11374 0
vt 0.680572 0.224533 0
vt 0.566156 0.338273 0
vt 0.454703 0.338273 0
vt 0.340286 0.224533 0
vt 0.340286 0.11374 0
vt 0.679149 0.785681 0
vt 0.647512 0.797525 0
vt 0.647512 0.745463 0
vt 0.679149 0.743299 0
vt 0.874208 0.0927483 0
vt 0.921191 0 0
vt 1 0.0788091 0
vt 0.907252 0.125792 0
vt 0.114417 0 0
vt 0.22587 0 0
vt 0.340286 0.11374 0
vt 0.340286 0.224533 0
vt 0.22587 0.338273 0
vt 0.114417 0.338273 0
vt 2.02826e-08 0.224533 0
vt 3.04239e-08 0.11374 0
vt 0.340286 0.3507 0
vt 0.340286 0.3507 0
vt 0 0.3507 0
vt 0.340286 0.690986 0
vt 0.340286 0.3507 0
vt 3.04239e-08 0.3507 0
vt 0.680572 0.3507 0
vt 0 0.690986 0
vt 0.0632743 0.694423 0
vt 0.0949114 0.690986 0
vt 0.0949114 0.714119 0
vt 0.0632743 0.713255 0
vt 0.440058 0.670129 0
vt 0.48413 0.563692 0
vt 0.557725 0.563628 0
vt 0.601797 0.669989 0
vt 0.361283 0.429684 0
vt 0.467682 0.473663 0
vt 0.467682 0.547258 0
vt 0.361283 0.591423 0
vt 0.680572 0.398412 0
vt 0.786971 0.442391 0
vt 0.786971 0.515987 0
vt 0.680572 0.560151 0
vt 0.759347 0.638857 0
vt 0.803419 0.53242 0
vt 0.877014 0.532356 0
vt 0.921086 0.638717 0
vt 0.680572 0.591145 0
vt 0.574173 0.547166 0
vt 0.574173 0.47357 0
vt 0.680572 0.429406 0
vt 0.601797 0.3507 0
vt 0.557725 0.457137 0
vt 0.48413 0.457201 0
vt 0.440058 0.35084 0
vt 0.921086 0.319428 0
vt 0.877014 0.425865 0
vt 0.803419 0.425929 0
vt 0.759347 0.319568 0
vt 0.999861 0.559873 0
vt 0.893462 0.515894 0
vt 0.893462 0.442298 0
vt 0.999861 0.398134 0
vt 0.474132 0.683583 0
vt 0.487522 0.670181 0
vt 0.547433 0.670129 0
vt 0.560822 0.683507 0
vt 0.560822 0.743418 0
vt 0.547433 0.756819 0
vt 0.487522 0.756871 0
vt 0.474132 0.743493 0
vt 0.574212 0.756819 0
vt 0.560822 0.743418 0
vt 0.560822 0.683507 0
vt 0.574212 0.670129 0
vt 0.634123 0.670181 0
vt 0.647512 0.683583 0
vt 0.647512 0.743493 0
vt 0.634123 0.756871 0
vt 0 0.749259 0
vt 0.0316371 0.748395 0
vt 0.0316371 0.771528 0
vt 0 0.768091 0
vt 0.0316371 0.702525 0
vt 0.0632743 0.690986 0
vt 0.0632743 0.748395 0
vt 0.0316371 0.749259 0
vt 0.74097 0.693083 0
vt 0.772607 0.69092 0
vt 0.772607 0.714191 0
vt 0.74097 0.712027 0
vt 0.772607 0.766253 0
vt 0.74097 0.754409 0
vt 0.19802 0.690986 0
vt 0.200184 0.722623 0
vt 0.176913 0.722623 0
vt 0.179076 0.690986 0
vt 0.0949114 0.713255 0
vt 0.126549 0.714119 0
vt 0.126549 0.771528 0
vt 0.0949114 0.759989 0
vt 0.679149 0.724355 0
vt 0.647512 0.722192 0
vt 0.647512 0.670129 0
vt 0.679149 0.681974 0
vt 0.0949114 0.694423 0
vt 0.126549 0.690986 0
vt 0.202347 0.722623 0
vt 0.200184 0.690986 0
vt 0.223455 0.690986 0
vt 0.221291 0.722623 0
vt 0.0949114 0.771528 0
vt 0.0632743 0.759989 0
vt 0.0632743 0.771528 0
vt 0.0316371 0.768091 0
vt 0.74097 0.650702 0
vt 0.772607 0.638857 0
vt 0 0.702525 0
vt 0.0316371 0.690986 0
vt 0.684962 0.690508 0
vt 0.710771 0.68683 0
vt 0.710771 0.733561 0
vt 0.684962 0.729883 0
vt 1 0.240619 0
vt 0.907252 0.193636 0
vt 0.806364 0.226679 0
vt 0.759381 0.319428 0
vt 0.680572 0.240619 0
vt 0.773321 0.193636 0
vt 0.874208 0.226679 0
vt 0.921191 0.319428 0
vt 0.806364 0.0927483 0
vt 0.759381 0 0
vt 0.680572 0.0788091 0
vt 0.773321 0.125792 0
vt 0.389125 0.782978 0
vt 0.361283 0.755136 0
vt 0.361283 0.697971 0
vt 0.389125 0.670129 0
vt 0.44629 0.670129 0
vt 0.474132 0.697971 0
vt 0.474132 0.755136 0
vt 0.44629 0.782978 0
vt 0.126549 0.694664 0
vt 0.151731 0.690986 0
vt 0.151731 0.737716 0
vt 0.126549 0.734038 0
vt 0.680572 0.650087 0
vt 0.705561 0.638857 0
vt 0.715161 0.729883 0
vt 0.74097 0.733561 0
vt 0.73576 0.781534 0
vt 0.710771 0.770305 0
vt 0.151731 0.694664 0
vt 0.176913 0.690986 0
vt 0.176913 0.737716 0
vt 0.151731 0.734038 0
vt 0.715161 0.690508 0
vt 0.74097 0.68683 0
vt 0.705561 0.781534 0
vt 0.680572 0.770305 0
vt 0.710771 0.650087 0
vt 0.73576 0.638857 0

# 41 vertex normals
vn 0 -1 1.62921e-07
vn -1 0 -0
vn 0.674807 -0.674807 -0.298781
vn 1.104e-07 1 -1.62921e-07
vn 1 0 0
vn 0.57735 0.57735 -0.57735
vn 0.57735 -0.57735 -0.57735
vn 0.57735 0.57735 0.57735
vn 0.57735 -0.57735 0.57735
vn -0.57735 0.57735 -0.57735
vn -0.57735 -0.57735 -0.57735
vn -0.57735 0.57735 0.57735
vn -0.57735 -0.57735 0.57735
vn -0.93652 -5.71222e-08 -0.350614
vn 0 -1.62921e-07 -1
vn 0 1.62921e-07 1
vn 0 1.02697e-07 1
vn -0.93652 5.71222e-08 0.350614
vn 0.674807 0.674807 -0.298782
vn 0 -0.93652 0.350614
vn 0.674807 -0.674807 0.298782
vn 0 0.93652 0.350614
vn 0.674807 0.674807 0.298781
vn -0.674807 -0.674807 -0.298781
vn 0.93652 5.71222e-08 0.350614
vn 0 0.93652 -0.350614
vn -0.674807 0.674807 -0.298782
vn 0.93652 -5.71222e-08 -0.350614
vn -0.674807 -0.674807 0.298782
vn 0 -0.93652 -0.350614
vn -0.674807 0.674807 0.298781
vn 0.910563 0.41337 -6.73465e-08
vn 0 1 -1.62921e-07
vn -1.104e-07 1 -1.62921e-07
vn 0 0.41337 0.910563
vn 0.650504 0.392033 0.650504
vn -0.650504 0.392033 0.650504
vn 0 0.41337 -0.910563
vn -0.910563 0.41337 -6.73465e-08
vn 0.650503 0.392033 -0.650504
vn -0.650504 0.392033 -0.650504

# Mesh 'Cube_Cube' with 140 faces
g Cube_Cube
usemtl Material
f  1/1/1 2/2/1 3/3/1
f  1/1/1 3/3/1 4/4/1
f  1/1/1 4/4/1 5/5/1
f  1/1/1 5/5/1 6/6/1
f  1/1/1 6/6/1 7/7/1
f  7/7/1 8/8/1 1/1/1
f  2/9/2 1/10/2 9/11/2
f  2/9/2 9/11/2 10/12/2
f  2/9/2 10/12/2 11/13/2
f  2/9/2 11/13/2 12/14/2
f  2/9/2 12/14/2 13/15/2
f  13/15/2 14/16/2 2/9/2
f  15/17/3 16/18/3 17/19/3
f  17/19/3 18/20/3 15/17/3
f  19/21/4 12/22/4 11/23/4
f  11/23/4 20/24/4 19/21/4
f  6/25/5 5/26/5 21/27/5
f  6/25/5 21/27/5 22/28/5
f  6/25/5 22/28/5 23/29/5
f  6/25/5 23/29/5 24/30/5
f  6/25/5 24/30/5 25/31/5
f  25/31/5 26/32/5 6/25/5
f  27/33/6 23/29/6 22/28/6
f  4/4/7 21/34/7 5/5/7
f  24/30/8 28/35/8 25/31/8
f  26/36/9 7/7/9 6/6/9
f  13/15/10 12/14/10 29/37/10
f  14/38/11 3/3/11 2/2/11
f  10/12/12 30/39/12 11/13/12
f  8/8/13 9/40/13 1/1/13
f  31/41/14 32/42/14 33/43/14
f  33/43/14 34/44/14 31/41/14
f  22/45/15 32/46/15 35/47/15
f  35/47/15 27/48/15 22/45/15
f  4/49/15 36/50/15 33/51/15
f  33/51/15 21/52/15 4/49/15
f  28/53/16 37/54/16 38/55/16
f  38/55/16 25/56/16 28/53/16
f  26/57/16 39/58/16 40/59/16
f  40/59/16 7/60/16 26/57/16
f  29/61/15 17/62/15 16/63/15
f  16/63/15 13/64/15 29/61/15
f  14/65/15 41/66/15 42/67/15
f  42/67/15 3/68/15 14/65/15
f  10/69/16 43/70/16 44/71/16
f  44/71/16 30/72/16 10/69/16
f  8/73/16 45/74/16 46/75/16
f  46/75/16 9/76/16 8/73/16
f  3/68/15 42/67/15 36/50/15
f  36/50/15 4/49/15 3/68/15
f  13/64/15 16/63/15 41/66/15
f  41/66/15 14/65/15 13/64/15
f  27/48/15 35/47/15 17/62/15
f  17/62/15 29/61/15 27/48/15
f  21/52/15 33/51/15 32/46/15
f  32/46/15 22/45/15 21/52/15
f  25/56/16 38/55/16 39/58/16
f  39/58/16 26/57/16 25/56/16
f  30/72/16 44/71/16 37/54/16
f  37/54/16 28/53/16 30/72/16
f  7/60/16 40/59/16 45/74/16
f  45/74/16 8/73/16 7/60/16
f  9/76/16 46/75/16 43/70/16
f  43/70/16 10/69/16 9/76/16
f  47/77/17 48/78/17 49/79/17
f  47/77/17 49/79/17 50/80/17
f  47/77/17 50/80/17 51/81/17
f  47/77/17 51/81/17 52/82/17
f  47/77/17 52/82/17 53/83/17
f  53/83/17 54/84/17 47/77/17
f  55/85/15 56/86/15 57/87/15
f  55/85/15 57/87/15 15/88/15
f  55/85/15 15/88/15 18/89/15
f  55/85/15 18/89/15 58/90/15
f  55/85/15 58/90/15 31/91/15
f  31/91/15 34/92/15 55/85/15
f  49/93/18 39/94/18 38/95/18
f  38/95/18 50/96/18 49/93/18
f  56/97/19 42/98/19 41/99/19
f  41/99/19 57/100/19 56/97/19
f  51/101/20 37/102/20 44/103/20
f  44/103/20 52/104/20 51/101/20
f  52/104/21 44/103/21 43/105/21
f  43/105/21 53/106/21 52/104/21
f  47/107/22 45/108/22 40/109/22
f  40/109/22 48/110/22 47/107/22
f  54/111/23 46/112/23 45/113/23
f  45/113/23 47/114/23 54/111/23
f  58/115/24 35/116/24 32/117/24
f  32/117/24 31/118/24 58/115/24
f  53/119/25 43/120/25 46/112/25
f  46/112/25 54/111/25 53/119/25
f  55/121/26 36/122/26 42/123/26
f  42/123/26 56/124/26 55/121/26
f  34/44/27 33/43/27 36/125/27
f  36/125/27 55/126/27 34/44/27
f  57/100/28 41/99/28 16/127/28
f  16/127/28 15/128/28 57/100/28
f  50/129/29 38/130/29 37/102/29
f  37/102/29 51/101/29 50/129/29
f  18/20/30 17/19/30 35/116/30
f  35/116/30 58/115/30 18/20/30
f  48/131/31 40/132/31 39/94/31
f  39/94/31 49/93/31 48/131/31
f  59/133/32 19/134/32 20/135/32
f  20/135/32 60/136/32 59/133/32
f  20/24/4 11/23/4 30/137/33
f  30/137/33 61/138/33 20/24/4
f  62/139/34 24/140/34 23/141/34
f  23/141/34 63/142/34 62/139/34
f  64/143/33 28/144/33 24/140/34
f  24/140/34 62/139/34 64/143/33
f  65/145/33 29/146/33 12/22/4
f  12/22/4 19/21/4 65/145/33
f  63/142/34 23/141/34 27/147/33
f  27/147/33 66/148/33 63/142/34
f  61/138/33 30/137/33 28/144/33
f  28/144/33 64/143/33 61/138/33
f  66/148/33 27/147/33 29/146/33
f  29/146/33 65/145/33 66/148/33
f  67/149/33 68/150/33 69/151/33
f  67/149/33 69/151/33 70/152/33
f  67/149/33 70/152/33 59/153/33
f  67/149/33 59/153/33 60/154/33
f  67/149/33 60/154/33 71/155/33
f  71/155/33 72/156/33 67/149/33
f  69/157/35 66/158/35 65/159/35
f  65/159/35 70/160/35 69/157/35
f  70/161/36 65/162/36 19/134/36
f  19/134/36 59/133/36 70/161/36
f  68/163/37 63/164/37 66/165/37
f  66/165/37 69/166/37 68/163/37
f  71/167/38 61/168/38 64/169/38
f  64/169/38 72/170/38 71/167/38
f  67/171/39 62/172/39 63/164/39
f  63/164/39 68/163/39 67/171/39
f  60/136/40 20/135/40 61/173/40
f  61/173/40 71/174/40 60/136/40
f  72/175/41 64/176/41 62/172/41
f  62/172/41 67/171/41 72/175/41

